<svg width="161" height="42" viewBox="0 0 161 42" fill="none" xmlns="http://www.w3.org/2000/svg">
<rect x="0.5" y="6.60913" width="44.0255" height="29.3692" rx="5.5" fill="#66646F" fill-opacity="0.8" stroke="#929292"/>
<path d="M58.325 26.168C58.325 24.376 58.6877 22.808 59.413 21.464C60.1384 20.0987 61.1304 19.0427 62.389 18.296C63.669 17.5493 65.0877 17.176 66.645 17.176C68.181 17.176 69.5144 17.5067 70.645 18.168C71.7757 18.8293 72.6184 19.6613 73.173 20.664V17.464H76.117V35H73.173V31.736C72.597 32.76 71.733 33.6133 70.581 34.296C69.4504 34.9573 68.1277 35.288 66.613 35.288C65.0557 35.288 63.6477 34.904 62.389 34.136C61.1304 33.368 60.1384 32.2907 59.413 30.904C58.6877 29.5173 58.325 27.9387 58.325 26.168ZM73.173 26.2C73.173 24.8773 72.9064 23.7253 72.373 22.744C71.8397 21.7627 71.1144 21.016 70.197 20.504C69.301 19.9707 68.309 19.704 67.221 19.704C66.133 19.704 65.141 19.96 64.245 20.472C63.349 20.984 62.6344 21.7307 62.101 22.712C61.5677 23.6933 61.301 24.8453 61.301 26.168C61.301 27.512 61.5677 28.6853 62.101 29.688C62.6344 30.6693 63.349 31.4267 64.245 31.96C65.141 32.472 66.133 32.728 67.221 32.728C68.309 32.728 69.301 32.472 70.197 31.96C71.1144 31.4267 71.8397 30.6693 72.373 29.688C72.9064 28.6853 73.173 27.5227 73.173 26.2ZM96.59 17.464V35H93.678V32.408C93.1234 33.304 92.3447 34.008 91.342 34.52C90.3607 35.0107 89.2727 35.256 88.078 35.256C86.7127 35.256 85.486 34.9787 84.398 34.424C83.31 33.848 82.446 32.9947 81.806 31.864C81.1874 30.7333 80.878 29.3573 80.878 27.736V17.464H83.758V27.352C83.758 29.08 84.1954 30.4133 85.07 31.352C85.9447 32.2693 87.1394 32.728 88.654 32.728C90.2114 32.728 91.438 32.248 92.334 31.288C93.23 30.328 93.678 28.9307 93.678 27.096V17.464H96.59ZM100.419 26.168C100.419 24.376 100.781 22.808 101.507 21.464C102.232 20.0987 103.224 19.0427 104.483 18.296C105.763 17.5493 107.192 17.176 108.771 17.176C110.136 17.176 111.405 17.496 112.579 18.136C113.752 18.7547 114.648 19.576 115.267 20.6V11.32H118.211V35H115.267V31.704C114.691 32.7493 113.837 33.6133 112.707 34.296C111.576 34.9573 110.253 35.288 108.739 35.288C107.181 35.288 105.763 34.904 104.483 34.136C103.224 33.368 102.232 32.2907 101.507 30.904C100.781 29.5173 100.419 27.9387 100.419 26.168ZM115.267 26.2C115.267 24.8773 115 23.7253 114.467 22.744C113.933 21.7627 113.208 21.016 112.291 20.504C111.395 19.9707 110.403 19.704 109.315 19.704C108.227 19.704 107.235 19.96 106.339 20.472C105.443 20.984 104.728 21.7307 104.195 22.712C103.661 23.6933 103.395 24.8453 103.395 26.168C103.395 27.512 103.661 28.6853 104.195 29.688C104.728 30.6693 105.443 31.4267 106.339 31.96C107.235 32.472 108.227 32.728 109.315 32.728C110.403 32.728 111.395 32.472 112.291 31.96C113.208 31.4267 113.933 30.6693 114.467 29.688C115 28.6853 115.267 27.5227 115.267 26.2ZM124.636 14.616C124.081 14.616 123.612 14.424 123.228 14.04C122.844 13.656 122.652 13.1867 122.652 12.632C122.652 12.0773 122.844 11.608 123.228 11.224C123.612 10.84 124.081 10.648 124.636 10.648C125.169 10.648 125.617 10.84 125.98 11.224C126.364 11.608 126.556 12.0773 126.556 12.632C126.556 13.1867 126.364 13.656 125.98 14.04C125.617 14.424 125.169 14.616 124.636 14.616ZM126.044 17.464V35H123.132V17.464H126.044ZM138.655 35.288C137.012 35.288 135.519 34.9147 134.175 34.168C132.852 33.4213 131.807 32.3653 131.039 31C130.292 29.6133 129.919 28.0133 129.919 26.2C129.919 24.408 130.303 22.8293 131.071 21.464C131.86 20.0773 132.927 19.0213 134.271 18.296C135.615 17.5493 137.119 17.176 138.783 17.176C140.447 17.176 141.951 17.5493 143.295 18.296C144.639 19.0213 145.695 20.0667 146.463 21.432C147.252 22.7973 147.647 24.3867 147.647 26.2C147.647 28.0133 147.241 29.6133 146.431 31C145.641 32.3653 144.564 33.4213 143.199 34.168C141.833 34.9147 140.319 35.288 138.655 35.288ZM138.655 32.728C139.7 32.728 140.681 32.4827 141.599 31.992C142.516 31.5013 143.252 30.7653 143.807 29.784C144.383 28.8027 144.671 27.608 144.671 26.2C144.671 24.792 144.393 23.5973 143.839 22.616C143.284 21.6347 142.559 20.9093 141.663 20.44C140.767 19.9493 139.796 19.704 138.751 19.704C137.684 19.704 136.703 19.9493 135.807 20.44C134.932 20.9093 134.228 21.6347 133.695 22.616C133.161 23.5973 132.895 24.792 132.895 26.2C132.895 27.6293 133.151 28.8347 133.663 29.816C134.196 30.7973 134.9 31.5333 135.775 32.024C136.649 32.4933 137.609 32.728 138.655 32.728Z" fill="#686868"/>
<path d="M18.2877 32L11.1127 24.05V32H8.83768V14.575H11.1127V22.65L18.3127 14.575H21.1877L13.2877 23.3L21.2627 32H18.2877ZM38.2035 14.575L31.6285 32H29.0035L22.4285 14.575H24.8535L30.3285 29.6L35.8035 14.575H38.2035Z" fill="white"/>
</svg>
